<svg xmlns="http://www.w3.org/2000/svg" viewBox="-1133.0 -3756.0 2847.0 6968.0">
  <polygon points="-709.0,-1035.0 -660.0,-1912.0 -1133.0,-2289.0 -948.0,-3370.0 865.0,-3377.0 1213.0,-2467.0 672.0,-1971.0 703.0,-1022.0 746.0,369.0 887.0,1069.0 1714.0,1325.0 1667.0,2980.0 -196.0,2186.0 -741.0,1358.0 -781.0,982.0" fill="#878787" stroke="none"/>
  <polygon points="-721.0,-792.0 -831.0,-799.0 -852.0,-422.0 -728.0,-398.0" fill="#545454" stroke="none"/>
  <polygon points="" fill="#878787" stroke="none"/>
  <polygon points="306.0,-827.0 359.0,-1222.0 488.0,-1252.0 552.0,-857.0" fill="#f8e2a6" stroke="none"/>
  <polygon points="-982.0,3016.0 -975.0,2451.0 -80.0,1684.0 -60.0,2122.0 -148.0,2438.0 -417.0,3050.0 -94.0,2599.0 559.0,1994.0 653.0,2250.0 492.0,2922.0 95.0,3164.0 -706.0,3212.0" fill="#00ef6e" stroke="none"/>
  <polygon points="-655.0,-2787.0 -292.0,-2661.0 -181.0,-3260.0 159.0,-3283.0 270.0,-2646.0 625.0,-2876.0 574.0,-3756.0 -670.0,-3623.0" fill="#616161" stroke="none"/>
  <text x="0.0" y="0.0" font-size="30" fill="#9b0000"></text>
  <text x="-763.0" y="-587.0" font-size="30" fill="#9b0000"></text>
  <text x="1547.0" y="2052.0" font-size="30" fill="#9b0000"></text>
  <text x="391.0" y="-1088.0" font-size="30" fill="#063c6e">RANA</text>
  <text x="-596.0" y="2671.0" font-size="30" fill="#9b0000">PLANTA</text>
  <text x="-12.0" y="-2887.0" font-size="30" fill="#9b0000"></text>
</svg>