<svg width="331" height="335" viewBox="0 0 331 335" fill="none" xmlns="http://www.w3.org/2000/svg">
<path fill-rule="evenodd" clip-rule="evenodd" d="M36 234C39.866 234 43 237.134 43 241V278C43 284.627 48.3726 290 55 290H92.5C96.366 290 99.5 293.134 99.5 297V305C99.5 308.866 96.366 312 92.5 312H33C26.3726 312 21 306.627 21 300V241C21 237.134 24.134 234 28 234H36ZM99.5 38C99.5 41.866 96.366 45 92.5 45H55C48.3726 45 43 50.3726 43 57V94C43 97.866 39.866 101 36 101H28C24.134 101 21 97.866 21 94V35C21 28.3726 26.3726 23 33 23H92.5C96.366 23 99.5 26.134 99.5 30V38ZM295 101C291.134 101 288 97.866 288 94V57C288 50.3726 282.627 45 276 45H239.5C235.634 45 232.5 41.866 232.5 38V30C232.5 26.134 235.634 23 239.5 23H298C304.627 23 310 28.3726 310 35V94C310 97.866 306.866 101 303 101H295ZM232.5 297C232.5 293.134 235.634 290 239.5 290H276C282.627 290 288 284.627 288 278V241C288 237.134 291.134 234 295 234H303C306.866 234 310 237.134 310 241V300C310 306.627 304.627 312 298 312H239.5C235.634 312 232.5 308.866 232.5 305V297Z" fill="#0BDE12"/>
<rect x="208" y="157" width="21" height="84" rx="7" transform="rotate(90 208 157)" fill="#0BDE12"/>
<rect x="155.5" y="125.5" width="21" height="84" rx="7" fill="#0BDE12"/>
</svg>
